# xmcd CD Database Entry
#
# Track frame offsets:
# 150
# 10388
# 25588
# 30763
# 36288
# 44563
# 49158
# 54563
# 95100
# 103013
# 110125
# 116925
# 119508
# 127000
# 131088
# 158413
# 182950
# 188650
# 207513
# 209815
# 218500
# 220738
# 225925
# 268588
#
# Disc length: 4122 seconds
#
# Revision: 5
# Processed by: cddbd v1.4PL0 Copyright (c) Steve Scherf et al.
# Submitted via: tcd 2.0b
#
DISCID=66101818
DTITLE=Giovanni Paolo Colonna - Motetti e Lamentazioni
DYEAR=1900
DGENRE=
TTITLE0=Nisi Dominus
TTITLE1=Vanum est vobis
TTITLE2=Cum dederit
TTITLE3=Sicut sagittae
TTITLE4=Beatus vir
TTITLE5=Gloria patri
TTITLE6=Sicut erat
TTITLE7=Pulchra es
TTITLE8=O caeli devota
TTITLE9=Angeli currite
TTITLE10=Ecce ancilla
TTITLE11=Ad delicias
TTITLE12=Haec ergo
TTITLE13=Alleluja
TTITLE14=Diffundite flores
TTITLE15=Salve praetiosum
TTITLE16=O lucidissima dies
TTITLE17=Orbi sacer
TTITLE18=O felicissima dies
TTITLE19=O splendida aurora
TTITLE20=O vere beatum
TTITLE21=Alleluja
TTITLE22=Seconda lamentazione del Mercoledì sera
TTITLE23=Terza lamentazione del Mercoledì sera
EXTD=Ensemble Arte-Musica, strumenti d'epoca \nSoprano: Roberta In
EXTD=vernizzi, Patrizia Vaccari\nControtenore: Roberto Balconi\nBa
EXTD=sso: Sergio Foresti\nOrgano, cembalo e concertazione: Frances
EXTD=co Cera
EXTT0=
EXTT1=
EXTT2=
EXTT3=
EXTT4=
EXTT5=
EXTT6=
EXTT7=
EXTT8=
EXTT9=
EXTT10=
EXTT11=
EXTT12=
EXTT13=
EXTT14=
EXTT15=
EXTT16=
EXTT17=
EXTT18=
EXTT19=
EXTT20=
EXTT21=
EXTT22=
EXTT23=
PLAYORDER=
